STARTFONT 2.1
COMMENT
COMMENT    This font is a modification of the Sony 12x24 font distributed
COMMENT    with X11.  The Sony copyright and license agreement are below.
COMMENT
COMMENT    Modifications for Nethack: Copyright 1998-2002
COMMENT           by Thomas A. Fine
COMMENT           Email to my last name at head.cfa.harvard.edu
COMMENT           http://hea-www.harvard.edu/~fine/
COMMENT
COMMENT    Some modifications made with bdfedit, a tcl/tk font editing program
COMMENT    written by Thomas A. Fine
COMMENT           http://hea-www.harvard.edu/~fine/Tech/bdfedit.html
COMMENT
COMMENT    This font is distributed under the same agreement as the original
COMMENT    Sony font; this agreement is listed below.
COMMENT
COMMENT =============================================================
COMMENT
COMMENT  Copyright 1989 by Sony Corp.
COMMENT
COMMENT  Permission to use, copy, modify, and distribute this software and
COMMENT  its documentation for any purpose and without fee is hereby granted,
COMMENT  provided that the above copyright notices appear in all copies and
COMMENT  that both those copyright notices and this permission notice appear
COMMENT  in supporting documentation, and that the name of Sony Corp.
COMMENT  not be used in advertising or publicity pertaining to distribution
COMMENT  of the software without specific, written prior permission.  Sony
COMMENT  Corp. makes no representations about the suitability of this
COMMENT  software for any purpose.  It is provided "as is" without express or
COMMENT  implied warranty.
COMMENT
COMMENT  SONY DISCLAIMS ALL WARRANTIES WITH REGARD TO THIS
COMMENT  SOFTWARE, INCLUDING ALL IMPLIED WARRANTIES OF MERCHANTABILITY AND
COMMENT  FITNESS, IN NO EVENT SHALL SONY BE LIABLE FOR ANY
COMMENT  SPECIAL, INDIRECT OR CONSEQUENTIAL DAMAGES OR ANY DAMAGES WHATSOEVER
COMMENT  RESULTING FROM LOSS OF USE, DATA OR PROFITS, WHETHER IN AN ACTION OF
COMMENT  CONTRACT, NEGLIGENCE OR OTHER TORTIOUS ACTION, ARISING OUT OF OR IN
COMMENT  CONNECTION WITH THE USE OR PERFORMANCE OF THIS SOFTWARE.
COMMENT
FONT -sonyfine-nethack-medium-r-normal--24-170-100-100-c-120--custom
SIZE 24 100 100
FONTBOUNDINGBOX 14 24 0 -2
STARTPROPERTIES 11
FOUNDRY "SonyFine"
FAMILY_NAME "Nethack"
WEIGHT_NAME "Medium"
SLANT "R"
SETWIDTH_NAME "Normal"
SPACING "c"
CHARSET_REGISTRY "ISO-8859"
CHARSET_ENCODING "1"
COPYRIGHT "Designer of this font retains full rights under the law"
FONT_ASCENT  22
FONT_DESCENT 2
ENDPROPERTIES
CHARS 245
STARTCHAR vbeam
ENCODING 1
SWIDTH 583 0
DWIDTH 14 0
BBX 14 24 0 -2
BITMAP
fcfc
cb44
8300
8b00
8300
8780
8320
9304
8380
8320
8740
c300
8310
8b80
8700
9348
8300
8380
8700
8320
8300
9340
8300
8708
ENDCHAR
STARTCHAR hbeam
ENCODING 2
SWIDTH 583 0
DWIDTH 14 0
BBX 14 24 0 -2
BITMAP
fffc
8000
a000
8008
8000
8400
8020
9004
c080
8420
2040
fffc
fffc
0888
c410
9048
8000
c080
8400
8000
8000
8008
9000
8000
ENDCHAR
STARTCHAR lslant
ENCODING 3
SWIDTH 583 0
DWIDTH 14 0
BBX 14 24 0 -2
BITMAP
bffc
c000
c400
6800
b040
b400
9a00
9800
8c80
8600
c620
8b80
8304
8180
8190
88e0
8260
8060
80b8
8030
8918
800c
802c
8004
ENDCHAR
STARTCHAR rslant
ENCODING 4
SWIDTH 583 0
DWIDTH 14 0
BBX 14 24 0 -2
BITMAP
fff4
840c
808c
8018
80b4
8430
a060
8060
84c4
8180
9188
8740
8300
8600
a600
8c40
9908
9800
f400
b000
6240
e000
f000
8000
ENDCHAR
STARTCHAR digbeam
ENCODING 5
SWIDTH 583 0
DWIDTH 14 0
BBX 14 24 0 -2
BITMAP
bcf4
c30c
c30c
6318
6318
b330
9b60
9b60
8fc0
8fc0
8480
787c
787c
8480
8fc0
8fc0
9b60
9b60
b330
6318
6318
c30c
c30c
8304
ENDCHAR
STARTCHAR cameraflash
ENCODING 6
SWIDTH 583 0
DWIDTH 14 0
BBX 14 24 0 -2
BITMAP
ff7c
8080
8080
9080
8888
8810
8420
8000
8000
4000
b000
8c00
8020
8018
8004
9000
a000
c040
0220
8410
8408
8400
8800
8000
ENDCHAR
STARTCHAR leftboomerang
ENCODING 7
SWIDTH 583 0
DWIDTH 14 0
BBX 14 24 0 -2
BITMAP
fffc
8000
8000
8070
80f0
81e0
8380
8700
8e00
8c00
9800
9800
9800
9c00
8e00
8700
8780
83c0
81e0
80e0
8040
8000
8000
8000
ENDCHAR
STARTCHAR rightboomerang
ENCODING 8
SWIDTH 583 0
DWIDTH 14 0
BBX 14 24 0 -2
BITMAP
fffc
8000
8000
9c00
9e00
8f00
8380
81c0
80e0
8060
8030
8030
8030
8070
80e0
81c0
83c0
8780
8f00
8e00
8400
8000
8000
8000
ENDCHAR
STARTCHAR magicres1
ENCODING 9
SWIDTH 583 0
DWIDTH 14 0
BBX 14 24 0 -2
BITMAP
fffc
8000
8000
8000
8000
8000
8000
8000
8100
8000
8100
8000
8100
8000
8100
8000
8100
8000
8000
8000
8000
8000
8000
8000
ENDCHAR
STARTCHAR magicres2
ENCODING 10
SWIDTH 583 0
DWIDTH 14 0
BBX 14 24 0 -2
BITMAP
fffc
8000
8000
8000
8000
8000
8280
8000
8440
8000
8440
8000
8440
8000
8440
8000
8440
8000
8280
8000
8000
8000
8000
8000
ENDCHAR
STARTCHAR magicres3
ENCODING 11
SWIDTH 583 0
DWIDTH 14 0
BBX 14 24 0 -2
BITMAP
fffc
8000
8000
8000
8100
8440
8000
8820
8000
9010
8000
9010
8000
9010
8000
9010
8000
8820
8000
8440
8100
8000
8000
8000
ENDCHAR
STARTCHAR magicres4
ENCODING 12
SWIDTH 583 0
DWIDTH 14 0
BBX 14 24 0 -2
BITMAP
fffc
8000
8540
8810
9000
8008
a000
8008
a000
8008
a000
8008
a000
8008
a000
8008
a000
8008
a000
8008
9000
8820
8280
8000
ENDCHAR
STARTCHAR ulswallow
ENCODING 13
SWIDTH 583 0
DWIDTH 14 0
BBX 10 17 4 -2
BITMAP
0c00
0e00
0d80
04c0
0400
3800
4000
4000
4000
7000
0800
0800
0800
3000
c000
2000
2000
ENDCHAR
STARTCHAR umswallow
ENCODING 14
SWIDTH 583 0
DWIDTH 14 0
BBX 14 6 0 8
BITMAP
0200
0200
0200
c704
3c88
0070
ENDCHAR
STARTCHAR urswallow
ENCODING 15
SWIDTH 583 0
DWIDTH 14 0
BBX 9 14 0 -2
BITMAP
1800
e800
0800
0800
0c00
0780
0180
0600
0800
0800
0800
0e00
0300
0100
ENDCHAR
STARTCHAR lswallow
ENCODING 16
SWIDTH 583 0
DWIDTH 14 0
BBX 6 24 4 -2
BITMAP
20
20
c0
80
80
c0
60
10
0c
04
08
10
70
08
08
08
08
70
20
10
10
10
10
20
ENDCHAR
STARTCHAR rswallow
ENCODING 17
SWIDTH 583 0
DWIDTH 14 0
BBX 6 24 2 -2
BITMAP
04
04
04
04
18
60
80
c0
40
20
18
0c
04
04
04
08
30
20
20
20
30
18
08
04
ENDCHAR
STARTCHAR llswallow
ENCODING 18
SWIDTH 583 0
DWIDTH 14 0
BBX 10 13 4 9
BITMAP
2000
2000
2000
2000
e000
6000
3000
1000
2000
2000
7800
c400
03c0
ENDCHAR
STARTCHAR lmswallow
ENCODING 19
SWIDTH 583 0
DWIDTH 14 0
BBX 14 5 0 9
BITMAP
19c0
1e60
2630
c618
000c
ENDCHAR
STARTCHAR lrswallow
ENCODING 20
SWIDTH 583 0
DWIDTH 14 0
BBX 13 15 0 7
BITMAP
0100
0100
0180
00c0
01c0
0270
0418
0400
0600
0200
3e00
e200
4000
4000
4000
ENDCHAR
STARTCHAR ulexplod
ENCODING 21
SWIDTH 583 0
DWIDTH 14 0
BBX 14 24 0 -2
BITMAP
fffc
8000
8000
8000
8000
8000
8000
8000
8000
8000
8000
803c
8074
83e8
875c
86b8
8574
86ac
8774
86a8
8d5c
8ab8
8554
86b8
ENDCHAR
STARTCHAR umexplod
ENCODING 22
SWIDTH 583 0
DWIDTH 14 0
BBX 14 24 0 -2
BITMAP
fffc
8000
8000
8000
8000
8000
8000
8000
8fe0
9ab0
757c
faac
dd54
abe8
5774
aab8
f554
bab8
5554
aaa8
5554
aae8
4754
a6a8
ENDCHAR
STARTCHAR urexplod
ENCODING 23
SWIDTH 583 0
DWIDTH 14 0
BBX 14 24 0 -2
BITMAP
fffc
8000
8000
8000
8000
8000
8000
8000
8000
8000
3c00
ee00
7600
aa00
5780
aac0
7d40
aec0
5540
aec0
55c0
eb80
7540
aac0
ENDCHAR
STARTCHAR lexplod
ENCODING 24
SWIDTH 583 0
DWIDTH 14 0
BBX 14 24 0 -2
BITMAP
fd54
86a8
8d74
9ae8
9550
8ae8
9d78
aaa4
b5d4
aba8
b554
bbac
8d50
9ba8
b5d0
aae4
b558
aaa8
9d54
8aa8
9574
9ae8
8d74
86b8
ENDCHAR
STARTCHAR mexplod
ENCODING 25
SWIDTH 583 0
DWIDTH 14 0
BBX 14 24 0 -2
BITMAP
4284
a298
5290
b420
4544
2848
9010
9020
6004
2018
0020
8004
6020
0008
6004
8020
000c
1040
2000
4290
c088
b26c
e254
aa68
ENDCHAR
STARTCHAR rexplod
ENCODING 26
SWIDTH 583 0
DWIDTH 14 0
BBX 14 24 0 -2
BITMAP
77bc
bac0
5d40
aaf0
55d0
aab0
5550
6ab8
9d58
2eb8
7750
aaa0
57f0
aaa8
d758
2ea8
9d58
6af8
1550
2ab0
5d50
aaa0
5de0
bb80
ENDCHAR
STARTCHAR llexplod
ENCODING 27
SWIDTH 583 0
DWIDTH 14 0
BBX 14 24 0 -2
BITMAP
ed54
8eb8
875c
86a8
85d4
86a8
85d4
86f8
8554
82a8
8354
81f8
801c
8000
8000
8000
8000
8000
8000
8000
8000
8000
8000
8000
ENDCHAR
STARTCHAR lmexplod
ENCODING 28
SWIDTH 583 0
DWIDTH 14 0
BBX 14 24 0 -2
BITMAP
4a54
b228
5554
aaa8
5554
aaa8
7574
aabc
7554
bba8
5f54
aaec
d57c
fab8
3550
9ab0
8d60
83c0
8000
8000
8000
8000
8000
8000
ENDCHAR
STARTCHAR lrexplod
ENCODING 29
SWIDTH 583 0
DWIDTH 14 0
BBX 14 24 0 -2
BITMAP
75bc
aa80
7540
eac0
5580
bb80
d580
ba80
7580
eb80
5f00
b800
f000
0000
8000
8000
8000
8000
8000
8000
8000
8000
8000
8000
ENDCHAR
STARTCHAR C040
ENCODING 32
SWIDTH 583 0
DWIDTH 14 0
BBX 0 0 0 0
BITMAP
ENDCHAR
STARTCHAR !
ENCODING 33
SWIDTH 583 0
DWIDTH 14 0
BBX 3 19 4 1
BITMAP
e0
e0
e0
e0
e0
e0
e0
e0
e0
40
40
40
40
40
00
00
e0
e0
e0
ENDCHAR
STARTCHAR "
ENCODING 34
SWIDTH 583 0
DWIDTH 14 0
BBX 8 6 1 16
BITMAP
e7
e7
63
63
42
84
ENDCHAR
STARTCHAR #
ENCODING 35
SWIDTH 583 0
DWIDTH 14 0
BBX 11 22 0 -1
BITMAP
0880
0880
0880
0880
0880
0880
7fe0
7fe0
1100
1100
1100
1100
1100
1100
ffc0
ffc0
2200
2200
2200
2200
2200
2200
ENDCHAR
STARTCHAR $
ENCODING 36
SWIDTH 583 0
DWIDTH 14 0
BBX 11 22 0 -1
BITMAP
0400
0400
1f00
64c0
c460
c460
c400
c400
e400
7c00
1f00
07c0
04e0
0460
0460
0460
c460
c460
64c0
1f00
0400
0400
ENDCHAR
STARTCHAR %
ENCODING 37
SWIDTH 583 0
DWIDTH 14 0
BBX 11 22 0 -1
BITMAP
7820
cc20
cc40
cc40
cc80
cc80
7900
0100
0200
0200
0400
0400
0800
0800
1000
13c0
2660
2660
4660
4660
8660
83c0
ENDCHAR
STARTCHAR &
ENCODING 38
SWIDTH 583 0
DWIDTH 14 0
BBX 11 19 0 1
BITMAP
1e00
2100
6180
6180
6180
6300
6600
3400
1800
1800
2c00
4400
c660
c320
c160
c1c0
c080
61c0
3f60
ENDCHAR
STARTCHAR '
ENCODING 39
SWIDTH 583 0
DWIDTH 14 0
BBX 3 6 3 16
BITMAP
e0
e0
60
60
40
80
ENDCHAR
STARTCHAR (
ENCODING 40
SWIDTH 583 0
DWIDTH 14 0
BBX 6 24 4 -2
BITMAP
04
08
18
10
30
20
60
60
40
c0
c0
c0
c0
c0
c0
40
60
60
20
30
10
18
08
04
ENDCHAR
STARTCHAR )
ENCODING 41
SWIDTH 583 0
DWIDTH 14 0
BBX 6 24 1 -2
BITMAP
80
40
60
20
30
10
18
18
08
0c
0c
0c
0c
0c
0c
08
18
18
10
30
20
60
40
80
ENDCHAR
STARTCHAR *
ENCODING 42
SWIDTH 583 0
DWIDTH 14 0
BBX 10 12 0 4
BITMAP
0c00
0c00
ccc0
edc0
3f00
0c00
0c00
3f00
edc0
ccc0
0c00
0c00
ENDCHAR
STARTCHAR +
ENCODING 43
SWIDTH 583 0
DWIDTH 14 0
BBX 10 14 1 3
BITMAP
0c00
0c00
0c00
0c00
0c00
0c00
ffc0
ffc0
0c00
0c00
0c00
0c00
0c00
0c00
ENDCHAR
STARTCHAR ,
ENCODING 44
SWIDTH 583 0
DWIDTH 14 0
BBX 3 6 3 -2
BITMAP
e0
e0
60
60
40
80
ENDCHAR
STARTCHAR -
ENCODING 45
SWIDTH 583 0
DWIDTH 14 0
BBX 11 2 0 9
BITMAP
ffe0
ffe0
ENDCHAR
STARTCHAR .
ENCODING 46
SWIDTH 583 0
DWIDTH 14 0
BBX 3 3 3 1
BITMAP
e0
e0
e0
ENDCHAR
STARTCHAR /
ENCODING 47
SWIDTH 583 0
DWIDTH 14 0
BBX 11 22 0 -1
BITMAP
0020
0060
0040
00c0
0080
0180
0100
0300
0200
0600
0400
0c00
0800
1800
1000
3000
2000
6000
4000
c000
8000
8000
ENDCHAR
STARTCHAR 0
ENCODING 48
SWIDTH 583 0
DWIDTH 14 0
BBX 11 20 0 0
BITMAP
0e00
1b00
3180
2080
60c0
4040
c060
c060
c060
c060
c060
c060
c060
c060
4040
60c0
2080
3180
1b00
0e00
ENDCHAR
STARTCHAR 1
ENCODING 49
SWIDTH 583 0
DWIDTH 14 0
BBX 9 20 1 0
BITMAP
0c00
1c00
3c00
fc00
0c00
0c00
0c00
0c00
0c00
0c00
0c00
0c00
0c00
0c00
0c00
0c00
0c00
0c00
0c00
7f80
ENDCHAR
STARTCHAR 2
ENCODING 50
SWIDTH 583 0
DWIDTH 14 0
BBX 11 20 0 0
BITMAP
0e00
3180
60c0
4060
8060
0060
0060
00c0
00c0
0180
0300
0200
0400
0800
1000
2020
4020
4060
ffe0
ffe0
ENDCHAR
STARTCHAR 3
ENCODING 51
SWIDTH 583 0
DWIDTH 14 0
BBX 11 20 0 0
BITMAP
3e00
6380
8180
00c0
00c0
00c0
0080
0100
1e00
3f80
01c0
00e0
0060
0060
0060
0060
00c0
0180
0700
f800
ENDCHAR
STARTCHAR 4
ENCODING 52
SWIDTH 583 0
DWIDTH 14 0
BBX 11 20 0 0
BITMAP
0180
0180
0380
0380
0580
0580
0980
0980
1180
1180
2180
2180
4180
4180
ffe0
0180
0180
0180
0180
07e0
ENDCHAR
STARTCHAR 5
ENCODING 53
SWIDTH 583 0
DWIDTH 14 0
BBX 10 20 1 0
BITMAP
ffc0
ff80
8000
8000
8000
8000
8000
be00
e300
c180
80c0
00c0
00c0
00c0
00c0
00c0
0180
0180
0700
f800
ENDCHAR
STARTCHAR 6
ENCODING 54
SWIDTH 583 0
DWIDTH 14 0
BBX 11 20 0 0
BITMAP
0380
0c00
1000
3000
6000
6000
c000
c000
cf00
f0c0
c060
c060
c060
c060
c060
c060
60c0
60c0
3180
0e00
ENDCHAR
STARTCHAR 7
ENCODING 55
SWIDTH 583 0
DWIDTH 14 0
BBX 11 20 0 0
BITMAP
ffe0
ffe0
c020
8040
8080
0080
0100
0100
0200
0200
0600
0600
0400
0c00
0c00
0c00
0c00
0c00
0c00
0c00
ENDCHAR
STARTCHAR 8
ENCODING 56
SWIDTH 583 0
DWIDTH 14 0
BBX 11 20 0 0
BITMAP
0e00
3180
2080
60c0
60c0
60c0
60c0
3080
3900
1e00
1f00
23c0
40c0
c060
c060
c060
c060
4040
60c0
1f00
ENDCHAR
STARTCHAR 9
ENCODING 57
SWIDTH 583 0
DWIDTH 14 0
BBX 11 20 0 0
BITMAP
0e00
3180
60c0
60c0
c060
c060
c060
c060
c060
4060
61e0
1e60
0060
0060
00c0
00c0
0180
0100
0600
3800
ENDCHAR
STARTCHAR :
ENCODING 58
SWIDTH 583 0
DWIDTH 14 0
BBX 3 13 4 1
BITMAP
e0
e0
e0
00
00
00
00
00
00
00
e0
e0
e0
ENDCHAR
STARTCHAR ;
ENCODING 59
SWIDTH 583 0
DWIDTH 14 0
BBX 3 16 4 -2
BITMAP
e0
e0
e0
00
00
00
00
00
00
00
e0
e0
60
60
40
80
ENDCHAR
STARTCHAR <
ENCODING 60
SWIDTH 583 0
DWIDTH 14 0
BBX 10 20 1 0
BITMAP
0040
00c0
0180
0300
0600
0c00
1800
3000
6000
c000
c000
6000
3000
1800
0c00
0600
0300
0180
00c0
0040
ENDCHAR
STARTCHAR =
ENCODING 61
SWIDTH 583 0
DWIDTH 14 0
BBX 11 8 0 6
BITMAP
ffe0
ffe0
0000
0000
0000
0000
ffe0
ffe0
ENDCHAR
STARTCHAR >
ENCODING 62
SWIDTH 583 0
DWIDTH 14 0
BBX 10 20 1 0
BITMAP
8000
c000
6000
3000
1800
0c00
0600
0300
0180
00c0
00c0
0180
0300
0600
0c00
1800
3000
6000
c000
8000
ENDCHAR
STARTCHAR ?
ENCODING 63
SWIDTH 583 0
DWIDTH 14 0
BBX 10 19 1 1
BITMAP
1e00
6180
c0c0
c0c0
e0c0
60c0
01c0
0180
0300
0600
0400
0800
0800
0800
0000
0000
1c00
1c00
1c00
ENDCHAR
STARTCHAR @
ENCODING 64
SWIDTH 583 0
DWIDTH 14 0
BBX 11 20 0 0
BITMAP
1f00
2080
60c0
4040
c060
8d20
9720
b320
b320
b320
b320
b320
b320
b760
9dc0
c000
4000
6020
20c0
1f00
ENDCHAR
STARTCHAR A
ENCODING 65
SWIDTH 583 0
DWIDTH 14 0
BBX 12 19 0 1
BITMAP
0600
0600
0600
0b00
0b00
0b00
0980
1180
1180
1180
20c0
20c0
3fc0
20c0
4060
4060
4060
4060
e0f0
ENDCHAR
STARTCHAR B
ENCODING 66
SWIDTH 583 0
DWIDTH 14 0
BBX 11 19 0 1
BITMAP
fe00
6180
60c0
60c0
60c0
60c0
60c0
6080
6100
7e00
6180
60c0
6060
6060
6060
6060
60c0
6180
fe00
ENDCHAR
STARTCHAR C
ENCODING 67
SWIDTH 583 0
DWIDTH 14 0
BBX 10 19 1 1
BITMAP
0e40
31c0
60c0
6040
c000
c000
c000
c000
c000
c000
c000
c000
c000
c000
c000
6040
6040
3180
0e00
ENDCHAR
STARTCHAR D
ENCODING 68
SWIDTH 583 0
DWIDTH 14 0
BBX 11 19 0 1
BITMAP
fc00
6300
6180
60c0
60c0
6060
6060
6060
6060
6060
6060
6060
6060
6060
60c0
60c0
6180
6300
fc00
ENDCHAR
STARTCHAR E
ENCODING 69
SWIDTH 583 0
DWIDTH 14 0
BBX 11 19 0 1
BITMAP
ffc0
60c0
6040
6020
6000
6000
6100
6100
6300
7f00
6300
6100
6100
6000
6000
6020
6040
60c0
ffc0
ENDCHAR
STARTCHAR F
ENCODING 70
SWIDTH 583 0
DWIDTH 14 0
BBX 11 19 0 1
BITMAP
ffc0
60c0
6040
6020
6000
6000
6100
6100
6300
7f00
6300
6100
6100
6000
6000
6000
6000
6000
f000
ENDCHAR
STARTCHAR G
ENCODING 71
SWIDTH 583 0
DWIDTH 14 0
BBX 11 19 0 1
BITMAP
0e40
31c0
60c0
6040
c000
c000
c000
c000
c000
c000
c3e0
c0c0
c0c0
c0c0
c0c0
60c0
60c0
31c0
0e40
ENDCHAR
STARTCHAR H
ENCODING 72
SWIDTH 583 0
DWIDTH 14 0
BBX 11 19 0 1
BITMAP
f1e0
60c0
60c0
60c0
60c0
60c0
60c0
60c0
60c0
7fc0
60c0
60c0
60c0
60c0
60c0
60c0
60c0
60c0
f1e0
ENDCHAR
STARTCHAR I
ENCODING 73
SWIDTH 583 0
DWIDTH 14 0
BBX 6 19 2 1
BITMAP
fc
30
30
30
30
30
30
30
30
30
30
30
30
30
30
30
30
30
fc
ENDCHAR
STARTCHAR J
ENCODING 74
SWIDTH 583 0
DWIDTH 14 0
BBX 11 19 0 1
BITMAP
07e0
0180
0180
0180
0180
0180
0180
0180
0180
0180
0180
0180
0180
6180
e180
c180
c180
6300
1c00
ENDCHAR
STARTCHAR K
ENCODING 75
SWIDTH 583 0
DWIDTH 14 0
BBX 11 19 0 1
BITMAP
f1e0
6040
6080
6080
6100
6200
6200
6400
6800
7c00
7c00
6600
6600
6300
6300
6180
6180
60c0
f1e0
ENDCHAR
STARTCHAR L
ENCODING 76
SWIDTH 583 0
DWIDTH 14 0
BBX 11 19 0 1
BITMAP
f000
6000
6000
6000
6000
6000
6000
6000
6000
6000
6000
6000
6000
6000
6000
6020
6040
60c0
ffc0
ENDCHAR
STARTCHAR M
ENCODING 77
SWIDTH 583 0
DWIDTH 14 0
BBX 12 19 0 1
BITMAP
e070
6060
60e0
70e0
70e0
7160
5960
5960
5b60
4e60
4e60
4e60
4460
4460
4060
4060
4060
4060
e0f0
ENDCHAR
STARTCHAR N
ENCODING 78
SWIDTH 583 0
DWIDTH 14 0
BBX 11 19 0 1
BITMAP
e0e0
6040
7040
7040
7040
5840
5840
4c40
4c40
4640
4640
4340
4340
4340
41c0
41c0
40c0
40c0
e040
ENDCHAR
STARTCHAR O
ENCODING 79
SWIDTH 583 0
DWIDTH 14 0
BBX 11 19 0 1
BITMAP
1f00
60c0
4040
c060
c060
c060
c060
c060
c060
c060
c060
c060
c060
c060
c060
c060
4040
60c0
1f00
ENDCHAR
STARTCHAR P
ENCODING 80
SWIDTH 583 0
DWIDTH 14 0
BBX 11 19 0 1
BITMAP
fe00
6180
60c0
6060
6060
6060
6060
6060
60c0
6180
7e00
6000
6000
6000
6000
6000
6000
6000
f000
ENDCHAR
STARTCHAR Q
ENCODING 81
SWIDTH 583 0
DWIDTH 14 0
BBX 11 22 0 -2
BITMAP
1e00
6180
4080
c0c0
c0c0
c0c0
c0c0
c0c0
c0c0
c0c0
c0c0
c0c0
c0c0
c0c0
ccc0
d2c0
6280
6380
1e00
0320
01e0
00c0
ENDCHAR
STARTCHAR R
ENCODING 82
SWIDTH 583 0
DWIDTH 14 0
BBX 11 19 0 1
BITMAP
fe00
6180
6080
60c0
60c0
60c0
60c0
6080
6180
7e00
6200
6100
6180
6180
6180
6180
61a0
61a0
f0c0
ENDCHAR
STARTCHAR S
ENCODING 83
SWIDTH 583 0
DWIDTH 14 0
BBX 11 19 0 1
BITMAP
1e40
61c0
c0c0
c040
c000
c000
e000
7000
3e00
0f80
01c0
00e0
0060
0060
0060
8060
c0c0
e180
9e00
ENDCHAR
STARTCHAR T
ENCODING 84
SWIDTH 583 0
DWIDTH 14 0
BBX 10 19 0 1
BITMAP
ffc0
ccc0
8c40
8c40
8c40
0c00
0c00
0c00
0c00
0c00
0c00
0c00
0c00
0c00
0c00
0c00
0c00
0c00
1e00
ENDCHAR
STARTCHAR U
ENCODING 85
SWIDTH 583 0
DWIDTH 14 0
BBX 11 19 0 1
BITMAP
f0e0
6040
6040
6040
6040
6040
6040
6040
6040
6040
6040
6040
6040
6040
6040
6040
6040
3080
1f00
ENDCHAR
STARTCHAR V
ENCODING 86
SWIDTH 583 0
DWIDTH 14 0
BBX 11 19 0 1
BITMAP
f0e0
6040
6040
6040
6040
3080
3080
3080
3080
1900
1900
1900
1b00
0a00
0e00
0e00
0400
0400
0400
ENDCHAR
STARTCHAR W
ENCODING 87
SWIDTH 583 0
DWIDTH 14 0
BBX 11 19 0 1
BITMAP
e060
c020
c020
c020
c020
c020
c620
c620
c620
c620
c620
cf20
cb20
6b40
6b40
7140
71c0
3180
3180
ENDCHAR
STARTCHAR X
ENCODING 88
SWIDTH 583 0
DWIDTH 14 0
BBX 11 19 0 1
BITMAP
f0e0
6040
6040
3080
3080
1900
1900
0a00
0e00
0400
0e00
0a00
1300
1300
2180
2180
40c0
40c0
e1e0
ENDCHAR
STARTCHAR Y
ENCODING 89
SWIDTH 583 0
DWIDTH 14 0
BBX 11 19 0 1
BITMAP
f0e0
6040
6040
3080
3080
3080
1900
1900
0f00
0e00
0600
0600
0600
0600
0600
0600
0600
0600
1f80
ENDCHAR
STARTCHAR Z
ENCODING 90
SWIDTH 583 0
DWIDTH 14 0
BBX 11 19 0 1
BITMAP
7fe0
40c0
40c0
8180
0180
0300
0300
0600
0600
0600
0c00
0c00
1800
1800
3000
3020
6040
60c0
ffc0
ENDCHAR
STARTCHAR [
ENCODING 91
SWIDTH 583 0
DWIDTH 14 0
BBX 6 24 4 -2
BITMAP
0c
38
e0
c0
c0
c0
c0
c0
c0
c0
c0
c0
c0
c0
c0
c0
c0
c0
c0
c0
c0
e0
38
0c
ENDCHAR
STARTCHAR \
ENCODING 92
SWIDTH 583 0
DWIDTH 14 0
BBX 11 22 0 -1
BITMAP
8000
c000
4000
6000
2000
3000
1000
1800
0800
0c00
0400
0600
0200
0300
0100
0180
0080
00c0
0040
0060
0020
0020
ENDCHAR
STARTCHAR ]
ENCODING 93
SWIDTH 583 0
DWIDTH 14 0
BBX 6 24 1 -2
BITMAP
c0
f0
3c
0c
0c
0c
0c
0c
0c
0c
0c
0c
0c
0c
0c
0c
0c
0c
0c
0c
0c
3c
f0
c0
ENDCHAR
STARTCHAR ^
ENCODING 94
SWIDTH 583 0
DWIDTH 14 0
BBX 11 6 0 16
BITMAP
0400
0e00
1f00
3b80
60c0
c060
ENDCHAR
STARTCHAR _
ENCODING 95
SWIDTH 583 0
DWIDTH 14 0
BBX 11 2 0 -2
BITMAP
ffe0
ffe0
ENDCHAR
STARTCHAR `
ENCODING 96
SWIDTH 583 0
DWIDTH 14 0
BBX 7 5 2 17
BITMAP
60
f0
78
1c
06
ENDCHAR
STARTCHAR a
ENCODING 97
SWIDTH 583 0
DWIDTH 14 0
BBX 11 13 0 1
BITMAP
1c00
7300
4180
0180
0180
1f80
6180
c180
c180
c180
c1a0
63a0
3cc0
ENDCHAR
STARTCHAR b
ENCODING 98
SWIDTH 583 0
DWIDTH 14 0
BBX 11 19 0 1
BITMAP
6000
e000
6000
6000
6000
6000
6e00
7180
60c0
60c0
6060
6060
6060
6060
6060
60c0
60c0
7180
4e00
ENDCHAR
STARTCHAR c
ENCODING 99
SWIDTH 583 0
DWIDTH 14 0
BBX 10 13 0 1
BITMAP
0e00
3180
60c0
60c0
c000
c000
c000
c000
c000
6000
6040
3180
0e00
ENDCHAR
STARTCHAR d
ENCODING 100
SWIDTH 583 0
DWIDTH 14 0
BBX 11 19 0 1
BITMAP
00c0
03c0
00c0
00c0
00c0
00c0
0ec0
31c0
60c0
60c0
c0c0
c0c0
c0c0
c0c0
c0c0
60c0
60c0
31c0
0ee0
ENDCHAR
STARTCHAR e
ENCODING 101
SWIDTH 583 0
DWIDTH 14 0
BBX 11 13 0 1
BITMAP
0e00
3180
60c0
60e0
c060
ffe0
c000
c000
c000
6000
6020
30c0
0f00
ENDCHAR
STARTCHAR f
ENCODING 102
SWIDTH 583 0
DWIDTH 14 0
BBX 11 19 0 1
BITMAP
01c0
0660
0460
0c00
0c00
0c00
ffc0
0c00
0c00
0c00
0c00
0c00
0c00
0c00
0c00
0c00
0c00
0c00
3f00
ENDCHAR
STARTCHAR g
ENCODING 103
SWIDTH 583 0
DWIDTH 14 0
BBX 11 17 0 -2
BITMAP
0060
0ee0
3180
60c0
60c0
60c0
3180
0e00
1000
3000
1f00
27c0
40e0
c060
c060
60c0
1f00
ENDCHAR
STARTCHAR h
ENCODING 104
SWIDTH 583 0
DWIDTH 14 0
BBX 11 19 0 1
BITMAP
6000
e000
6000
6000
6000
6000
6f00
7180
60c0
60c0
60c0
60c0
60c0
60c0
60c0
60c0
60c0
60c0
f1e0
ENDCHAR
STARTCHAR i
ENCODING 105
SWIDTH 583 0
DWIDTH 14 0
BBX 6 19 2 1
BITMAP
70
70
70
00
00
00
f0
30
30
30
30
30
30
30
30
30
30
30
fc
ENDCHAR
STARTCHAR j
ENCODING 106
SWIDTH 583 0
DWIDTH 14 0
BBX 8 22 0 -2
BITMAP
07
07
07
00
00
00
0f
03
03
03
03
03
03
03
03
03
03
03
03
c3
c6
7c
ENDCHAR
STARTCHAR k
ENCODING 107
SWIDTH 583 0
DWIDTH 14 0
BBX 11 19 0 1
BITMAP
6000
e000
6000
6000
6000
6000
61e0
6080
6100
6200
6400
6800
7800
6c00
6600
6300
6180
60c0
f1e0
ENDCHAR
STARTCHAR l
ENCODING 108
SWIDTH 583 0
DWIDTH 14 0
BBX 6 19 2 1
BITMAP
30
f0
30
30
30
30
30
30
30
30
30
30
30
30
30
30
30
30
fc
ENDCHAR
STARTCHAR m
ENCODING 109
SWIDTH 583 0
DWIDTH 14 0
BBX 12 13 0 1
BITMAP
6dc0
f660
6660
6660
6660
6660
6660
6660
6660
6660
6660
6660
ef70
ENDCHAR
STARTCHAR n
ENCODING 110
SWIDTH 583 0
DWIDTH 14 0
BBX 11 13 0 1
BITMAP
6600
f980
60c0
60c0
60c0
60c0
60c0
60c0
60c0
60c0
60c0
60c0
f1e0
ENDCHAR
STARTCHAR o
ENCODING 111
SWIDTH 583 0
DWIDTH 14 0
BBX 11 13 0 1
BITMAP
0e00
3180
60c0
4040
c060
c060
c060
c060
c060
4040
60c0
3180
0e00
ENDCHAR
STARTCHAR p
ENCODING 112
SWIDTH 583 0
DWIDTH 14 0
BBX 11 16 0 -2
BITMAP
6e00
f180
60c0
6060
6060
6060
6060
6060
60c0
7180
6e00
6000
6000
6000
6000
f000
ENDCHAR
STARTCHAR q
ENCODING 113
SWIDTH 583 0
DWIDTH 14 0
BBX 11 16 0 -2
BITMAP
0e40
31c0
60c0
c0c0
c0c0
c0c0
c0c0
c0c0
60c0
31c0
0ec0
00c0
00c0
00c0
00c0
01e0
ENDCHAR
STARTCHAR r
ENCODING 114
SWIDTH 583 0
DWIDTH 14 0
BBX 11 13 0 1
BITMAP
31c0
f3e0
3660
3800
3000
3000
3000
3000
3000
3000
3000
3000
fc00
ENDCHAR
STARTCHAR s
ENCODING 115
SWIDTH 583 0
DWIDTH 14 0
BBX 11 13 0 1
BITMAP
1e40
61c0
c0c0
c040
e000
7c00
1f80
03c0
00e0
8060
c060
e0c0
9f00
ENDCHAR
STARTCHAR t
ENCODING 116
SWIDTH 583 0
DWIDTH 14 0
BBX 11 19 0 1
BITMAP
1800
1800
1800
1800
1800
1800
ff80
1800
1800
1800
1800
1800
1800
1800
1800
1820
1820
0c40
0780
ENDCHAR
STARTCHAR u
ENCODING 117
SWIDTH 583 0
DWIDTH 14 0
BBX 11 13 0 1
BITMAP
60c0
e1c0
60c0
60c0
60c0
60c0
60c0
60c0
60c0
60c0
60c0
33c0
1ce0
ENDCHAR
STARTCHAR v
ENCODING 118
SWIDTH 583 0
DWIDTH 14 0
BBX 11 13 0 1
BITMAP
f0e0
6040
6040
3080
3080
3080
1900
1900
1a00
0e00
0e00
0400
0400
ENDCHAR
STARTCHAR w
ENCODING 119
SWIDTH 583 0
DWIDTH 14 0
BBX 11 13 0 1
BITMAP
e060
c020
c020
c620
c620
c620
ce20
cb20
cb20
5160
71c0
60c0
2080
ENDCHAR
STARTCHAR x
ENCODING 120
SWIDTH 583 0
DWIDTH 14 0
BBX 11 13 0 1
BITMAP
f0e0
6040
3080
1900
1900
0e00
0400
0e00
1300
1300
2180
40c0
e1e0
ENDCHAR
STARTCHAR y
ENCODING 121
SWIDTH 583 0
DWIDTH 14 0
BBX 11 16 0 -2
BITMAP
f0e0
6040
6040
3080
3080
1880
1900
0d00
0e00
0600
0200
0400
0400
c800
c800
7000
ENDCHAR
STARTCHAR z
ENCODING 122
SWIDTH 583 0
DWIDTH 14 0
BBX 11 13 0 1
BITMAP
7fe0
60c0
4180
8180
0300
0600
0400
0c00
1800
3020
3040
6040
ffc0
ENDCHAR
STARTCHAR {
ENCODING 123
SWIDTH 583 0
DWIDTH 14 0
BBX 5 24 5 -2
BITMAP
08
10
10
30
30
30
30
30
30
20
40
80
40
20
30
30
30
30
30
30
30
10
10
08
ENDCHAR
STARTCHAR |
ENCODING 124
SWIDTH 583 0
DWIDTH 14 0
BBX 2 24 5 -2
BITMAP
c0
c0
c0
c0
c0
c0
c0
c0
c0
c0
c0
c0
c0
c0
c0
c0
c0
c0
c0
c0
c0
c0
c0
c0
ENDCHAR
STARTCHAR }
ENCODING 125
SWIDTH 583 0
DWIDTH 14 0
BBX 5 24 1 -2
BITMAP
80
40
40
60
60
60
60
60
60
20
10
08
10
20
60
60
60
60
60
60
60
40
40
80
ENDCHAR
STARTCHAR ~
ENCODING 126
SWIDTH 583 0
DWIDTH 14 0
BBX 11 4 0 18
BITMAP
3820
7c60
c7c0
8380
ENDCHAR
STARTCHAR vwall
ENCODING 128
SWIDTH 583 0
DWIDTH 14 0
BBX 6 24 4 -2
BITMAP
ac
d4
ac
d4
ac
d4
ac
d4
ac
d4
ac
d4
ac
d4
ac
d4
ac
d4
ac
d4
ac
d4
ac
d4
ENDCHAR
STARTCHAR hwall
ENCODING 129
SWIDTH 583 0
DWIDTH 14 0
BBX 14 6 0 7
BITMAP
fffc
aaa8
5554
aaa8
5554
fffc
ENDCHAR
STARTCHAR tlcorn
ENCODING 130
SWIDTH 583 0
DWIDTH 14 0
BBX 10 15 4 -2
BITMAP
ffc0
aa80
d540
aa80
d540
afc0
d400
ac00
d400
ac00
d400
ac00
d400
ac00
d400
ENDCHAR
STARTCHAR trcorn
ENCODING 131
SWIDTH 583 0
DWIDTH 14 0
BBX 10 15 0 -2
BITMAP
ffc0
aac0
5540
aac0
5540
fac0
0d40
0ac0
0d40
0ac0
0d40
0ac0
0d40
0ac0
0d40
ENDCHAR
STARTCHAR blcorn
ENCODING 132
SWIDTH 583 0
DWIDTH 14 0
BBX 10 15 4 7
BITMAP
ac00
d400
ac00
d400
ac00
d400
ac00
d400
ac00
d7c0
aa80
d540
aa80
d540
ffc0
ENDCHAR
STARTCHAR brcorn
ENCODING 133
SWIDTH 583 0
DWIDTH 14 0
BBX 10 15 0 7
BITMAP
0ac0
0d40
0ac0
0d40
0ac0
0d40
0ac0
0d40
0ac0
fd40
aac0
5540
aac0
5540
ffc0
ENDCHAR
STARTCHAR iwall
ENCODING 134
SWIDTH 583 0
DWIDTH 14 0
BBX 14 24 0 -2
BITMAP
0ac0
0d40
0ac0
0d40
0ac0
0d40
0ac0
0d40
0ac0
fd7c
aaa8
5554
aaa8
5554
fafc
0d40
0ac0
0d40
0ac0
0d40
0ac0
0d40
0ac0
0d40
ENDCHAR
STARTCHAR uteewall
ENCODING 135
SWIDTH 583 0
DWIDTH 14 0
BBX 14 15 0 7
BITMAP
0ac0
0d40
0ac0
0d40
0ac0
0d40
0ac0
0d40
0ac0
fd7c
aaa8
5554
aaa8
5554
fffc
ENDCHAR
STARTCHAR dteewall
ENCODING 136
SWIDTH 583 0
DWIDTH 14 0
BBX 14 15 0 -2
BITMAP
fffc
aaa8
5554
aaa8
5554
fafc
0d40
0ac0
0d40
0ac0
0d40
0ac0
0d40
0ac0
0d40
ENDCHAR
STARTCHAR lteewall
ENCODING 137
SWIDTH 583 0
DWIDTH 14 0
BBX 10 24 0 -2
BITMAP
0ac0
0d40
0ac0
0d40
0ac0
0d40
0ac0
0d40
0ac0
fd40
aac0
5540
aac0
5540
fac0
0d40
0ac0
0d40
0ac0
0d40
0ac0
0d40
0ac0
0d40
ENDCHAR
STARTCHAR rteewall
ENCODING 138
SWIDTH 583 0
DWIDTH 14 0
BBX 10 24 4 -2
BITMAP
ac00
d400
ac00
d400
ac00
d400
ac00
d400
ac00
d7c0
aa80
d540
aa80
d540
afc0
d400
ac00
d400
ac00
d400
ac00
d400
ac00
d400
ENDCHAR
STARTCHAR room
ENCODING 139
SWIDTH 583 0
DWIDTH 14 0
BBX 14 24 0 -2
BITMAP
fffc
8000
8000
8000
8000
8000
8000
8000
8000
8000
8000
8000
8000
8000
8000
8000
8000
8000
8000
8000
8000
8000
8000
8000
ENDCHAR
STARTCHAR vogdoor
ENCODING 140
SWIDTH 583 0
DWIDTH 14 0
BBX 13 24 0 -2
BITMAP
8ac0
8d40
8fc0
bff8
8000
8000
8000
8000
8000
8000
8000
8000
8000
8000
8000
8000
8000
8000
8000
8000
bff8
8fc0
8ac0
8d40
ENDCHAR
STARTCHAR hogdoor
ENCODING 141
SWIDTH 583 0
DWIDTH 14 0
BBX 14 21 0 1
BITMAP
fffc
0000
0000
0000
2010
2010
2010
2010
2010
e01c
e018
601c
e018
601c
e01c
2010
2010
2010
2010
2010
2010
ENDCHAR
STARTCHAR vdoor
ENCODING 142
SWIDTH 583 0
DWIDTH 14 0
BBX 6 24 4 -2
BITMAP
ac
d4
fc
30
30
30
30
30
30
30
30
30
30
30
30
30
30
30
30
30
30
fc
ac
d4
ENDCHAR
STARTCHAR hdoor
ENCODING 143
SWIDTH 583 0
DWIDTH 14 0
BBX 14 6 0 7
BITMAP
c00c
c008
7ffc
fff8
400c
c00c
ENDCHAR
STARTCHAR tunnel
ENCODING 144
SWIDTH 583 0
DWIDTH 14 0
BBX 14 24 0 -2
BITMAP
fffc
aaa8
d554
aaa8
d554
aaa8
d554
aaa8
d554
aaa8
d554
aaa8
d554
aaa8
d554
aaa8
d554
aaa8
d554
aaa8
d554
aaa8
d554
aaa8
ENDCHAR
STARTCHAR upstairs
ENCODING 145
SWIDTH 583 0
DWIDTH 14 0
BBX 14 24 0 -2
BITMAP
fffc
8000
8000
8000
8000
801c
8010
8010
8070
8040
8040
81c0
8100
8100
8700
8400
8400
9c00
9000
9000
f000
8000
8000
8000
ENDCHAR
STARTCHAR downstairs
ENCODING 146
SWIDTH 583 0
DWIDTH 14 0
BBX 14 24 0 -2
BITMAP
fffc
8000
8000
8000
8000
f000
9000
9000
9c00
8400
8400
8700
8100
8100
81c0
8040
8040
8070
8010
8010
801c
8000
8000
8000
ENDCHAR
STARTCHAR altar
ENCODING 147
SWIDTH 583 0
DWIDTH 14 0
BBX 14 24 0 -2
BITMAP
fffc
8000
8000
8000
8000
8380
8440
8820
9010
9c70
a288
a108
a108
a108
a108
a388
a388
a008
a008
a008
bff8
a008
fffc
8000
ENDCHAR
STARTCHAR throne
ENCODING 148
SWIDTH 583 0
DWIDTH 14 0
BBX 14 24 0 -2
BITMAP
fffc
8000
8000
8000
8000
8000
8000
8000
87c0
bc78
a008
b118
9110
9010
9830
8820
8820
9830
8820
8fe0
8c60
8820
8fe0
8820
ENDCHAR
STARTCHAR sink
ENCODING 149
SWIDTH 583 0
DWIDTH 14 0
BBX 14 24 0 -2
BITMAP
fffc
8000
8000
8000
8000
8000
8000
8000
8000
8000
8000
8000
a008
bff8
aaa8
b558
9ff0
8400
8480
8540
8240
8040
8040
8040
ENDCHAR
STARTCHAR fountain
ENCODING 150
SWIDTH 583 0
DWIDTH 14 0
BBX 14 24 0 -2
BITMAP
fffc
8000
8000
8000
8000
8000
8060
8c80
9290
a280
8100
8160
8d88
8380
9100
8110
8100
8fe0
b118
c124
9100
8810
c2c4
f01c
ENDCHAR
STARTCHAR pool
ENCODING 151
SWIDTH 583 0
DWIDTH 14 0
BBX 14 24 0 -2
BITMAP
fffc
8000
8000
a490
db6c
8000
8000
8000
8000
c924
b6d8
8000
8000
8000
8000
9248
edb4
8000
8000
8000
8000
a488
db74
8000
ENDCHAR
STARTCHAR ice
ENCODING 152
SWIDTH 583 0
DWIDTH 14 0
BBX 14 24 0 -2
BITMAP
fffc
8000
8000
8000
8000
8000
8000
8000
8000
8000
8000
8000
8000
8000
8000
8000
8000
8000
8000
8000
8000
8000
bef8
8000
ENDCHAR
STARTCHAR lava
ENCODING 153
SWIDTH 583 0
DWIDTH 14 0
BBX 14 24 0 -2
BITMAP
fffc
8000
8000
8000
8000
8000
8000
8000
8000
8000
8000
8000
8000
8000
8000
8000
a120
9210
a120
9210
8000
bbb8
eeec
8000
ENDCHAR
STARTCHAR air
ENCODING 154
SWIDTH 583 0
DWIDTH 14 0
BBX 14 24 0 -2
BITMAP
fddc
8000
8000
8000
8000
9000
8000
8000
8010
0000
8000
8000
8000
8400
8000
8000
0000
8000
8020
8000
8000
8000
8000
8000
ENDCHAR
STARTCHAR cloud
ENCODING 155
SWIDTH 583 0
DWIDTH 14 0
BBX 14 24 0 -2
BITMAP
fffc
8000
8000
8000
8000
8000
8000
8000
8000
80f0
81a8
8150
8ea8
9558
bff0
8000
8000
8000
8000
8000
8000
8000
8000
8000
ENDCHAR
STARTCHAR water
ENCODING 156
SWIDTH 583 0
DWIDTH 14 0
BBX 14 24 0 -2
BITMAP
fffc
8000
8000
a490
db6c
8000
8000
8000
8040
8000
8000
8000
8000
8200
8000
8000
8000
8040
8000
8000
8dc0
87e0
84c0
8000
ENDCHAR
STARTCHAR C235
ENCODING 157
SWIDTH 583 0
DWIDTH 14 0
BBX 14 24 0 -2
BITMAP
fffc
8000
8fe0
b7d8
b7d8
8fe0
8820
8fe0
8820
8820
8fe0
8820
8820
8fe0
8820
8820
8000
8000
8000
8000
8000
8000
8000
8000
ENDCHAR
STARTCHAR C236
ENCODING 158
SWIDTH 583 0
DWIDTH 14 0
BBX 14 24 0 -2
BITMAP
fffc
8000
8000
8000
8000
8000
8000
8000
8000
8820
8820
8fe0
8820
8820
8fe0
8820
8820
8fe0
8820
8fe0
b7d8
b7d8
8fe0
8000
ENDCHAR
STARTCHAR stone
ENCODING 159
SWIDTH 583 0
DWIDTH 14 0
BBX 14 24 0 -2
BITMAP
3888
e48c
87dc
8470
4c60
3ce0
07b0
0c0c
883c
5820
3820
64c0
e344
314c
1ff8
0a10
0810
081c
9824
f020
ac3c
3fc4
1108
1190
ENDCHAR
STARTCHAR ghost
ENCODING 160
SWIDTH 583 0
DWIDTH 14 0
BBX 14 24 0 -2
BITMAP
fbfc
8000
8000
8000
8000
8000
0000
0000
8000
8000
8000
8000
8000
8000
0000
8000
8000
8000
8000
8000
8000
8000
8000
8000
ENDCHAR
STARTCHAR potion
ENCODING 161
SWIDTH 583 0
DWIDTH 14 0
BBX 14 24 0 -2
BITMAP
fffc
8000
8000
8000
8100
8000
9008
8000
8040
8400
8000
8000
87e0
8810
87e0
86a0
8560
86a0
8560
86e0
83c0
8000
8000
8000
ENDCHAR
STARTCHAR amulet
ENCODING 162
SWIDTH 583 0
DWIDTH 14 0
BBX 14 24 0 -2
BITMAP
fffc
8000
8000
8000
8000
8000
87c0
8820
9010
9010
9010
8820
8820
8440
8280
8100
87c0
8380
8100
8000
8000
8000
8000
8000
ENDCHAR
STARTCHAR web
ENCODING 163
SWIDTH 583 0
DWIDTH 14 0
BBX 14 24 0 -2
BITMAP
fffc
8000
8000
8000
8000
c004
e008
97f0
9a4c
a7a8
ba50
dba8
d6b8
f5e8
db28
a950
a79c
d970
c780
fc00
c000
8000
8000
8000
ENDCHAR
STARTCHAR gold
ENCODING 164
SWIDTH 583 0
DWIDTH 14 0
BBX 14 24 0 -2
BITMAP
fffc
8000
8000
8000
8000
8000
8000
8000
8000
8000
8000
8000
8000
8000
8380
8280
87c0
8540
8fe0
8aa0
9ff0
9550
bff8
aaa8
ENDCHAR
STARTCHAR food
ENCODING 165
SWIDTH 583 0
DWIDTH 14 0
BBX 14 24 0 -2
BITMAP
fffc
8000
8000
8000
8000
8000
8000
8000
8000
8000
8000
8000
83e0
8410
a988
aba8
a918
a808
a9c8
a410
83e0
8000
8000
8000
ENDCHAR
STARTCHAR demon
ENCODING 166
SWIDTH 583 0
DWIDTH 14 0
BBX 14 24 0 -2
BITMAP
fffc
8000
8000
8000
8480
8840
8b40
8780
8780
8780
8300
8ff0
9ff8
1fe8
37c8
6798
4fc0
1fe0
3ce0
7870
7070
38e0
18c0
b8e0
ENDCHAR
STARTCHAR golem
ENCODING 167
SWIDTH 583 0
DWIDTH 14 0
BBX 14 24 0 -2
BITMAP
fffc
8000
8000
8000
8000
8000
8380
8440
8440
8440
8380
8100
8100
9ff0
8100
8100
8100
8100
8100
8280
8440
8440
8820
9020
ENDCHAR
STARTCHAR tools
ENCODING 168
SWIDTH 583 0
DWIDTH 14 0
BBX 14 24 0 -2
BITMAP
fffc
8000
8000
8000
8000
8d80
8d80
8880
8880
8d80
8700
8f80
8cc0
9840
9060
9020
9020
9020
9020
9020
9860
8840
8000
8000
ENDCHAR
STARTCHAR weapon
ENCODING 169
SWIDTH 583 0
DWIDTH 14 0
BBX 14 24 0 -2
BITMAP
fffc
8000
8000
8100
8380
8380
8380
8380
8380
8380
8380
8380
8380
8380
8380
8380
8ba0
8fe0
8100
8100
8100
8100
8000
8000
ENDCHAR
STARTCHAR gem
ENCODING 170
SWIDTH 583 0
DWIDTH 14 0
BBX 14 24 0 -2
BITMAP
fffc
8000
8000
8000
8000
8000
8000
8000
8920
a548
9010
87c0
8820
9010
8820
8440
8280
8100
8000
8000
8000
8000
8000
8000
ENDCHAR
STARTCHAR spellbook
ENCODING 171
SWIDTH 583 0
DWIDTH 14 0
BBX 14 24 0 -2
BITMAP
fffc
8000
8000
8000
0000
0000
7070
4d90
5250
4a90
2208
2948
2108
b938
bef0
87c0
8000
8000
8000
8000
8000
8000
8000
8000
ENDCHAR
STARTCHAR tree
ENCODING 172
SWIDTH 583 0
DWIDTH 14 0
BBX 14 24 0 -2
BITMAP
faf4
2408
b1d8
8970
4d68
25e8
d3b8
7a94
1da0
9720
9320
9340
9bc0
8fc0
87c0
87c0
8780
8f80
8f80
8fc0
8fc0
9fc0
bfe0
7ff0
ENDCHAR
STARTCHAR grave
ENCODING 173
SWIDTH 583 0
DWIDTH 14 0
BBX 14 24 0 -2
BITMAP
fffc
8000
8000
8000
8000
8000
8000
8000
83c0
87a0
8850
9028
a014
a014
a014
a014
a114
a874
b554
b154
b154
b174
a054
e054
ENDCHAR
STARTCHAR venom
ENCODING 174
SWIDTH 583 0
DWIDTH 14 0
BBX 14 24 0 -2
BITMAP
fffc
8000
8000
8000
8000
8000
8000
8000
8000
8000
8000
8000
8000
8000
8000
8000
8000
8000
8000
8000
8000
8000
8000
c000
ENDCHAR
STARTCHAR wand
ENCODING 175
SWIDTH 583 0
DWIDTH 14 0
BBX 14 24 0 -2
BITMAP
fffc
8000
8020
8220
8220
8120
8020
8000
8018
8180
8180
8380
8300
8600
8600
8c00
9c00
9800
b000
3000
6000
2000
8000
8000
ENDCHAR
STARTCHAR ball
ENCODING 176
SWIDTH 583 0
DWIDTH 14 0
BBX 14 24 0 -2
BITMAP
fffc
8000
8000
8000
8000
8000
8000
81f0
8758
9df8
ff28
d878
b7d0
8ff0
9ff0
bff8
bff8
aff8
aff8
b3f8
9bf0
8fe0
87c0
8000
ENDCHAR
STARTCHAR lighttunnel
ENCODING 177
SWIDTH 583 0
DWIDTH 14 0
BBX 14 24 0 -2
BITMAP
fffc
aaa8
c444
aaa8
9110
aaa8
c444
aaa8
9110
aaa8
c444
aaa8
9110
aaa8
c444
aaa8
9110
aaa8
c444
aaa8
9110
aaa8
c444
aaa8
ENDCHAR
STARTCHAR vldraw
ENCODING 178
SWIDTH 583 0
DWIDTH 14 0
BBX 14 24 0 -2
BITMAP
fffc
8ba0
8ee0
abb0
deec
8ba0
8ee0
8ba0
8ee0
cba4
bef8
8ba0
8ee0
8ba0
8ee0
9ba8
eef4
8ba0
8ee0
8ba0
8ee0
aba8
def4
8fe0
ENDCHAR
STARTCHAR vrdraw
ENCODING 179
SWIDTH 583 0
DWIDTH 14 0
BBX 14 13 0 7
BITMAP
7ff8
5dd8
7778
3ff0
3bb0
1fe0
1fe0
efdc
afd8
6fd4
bff8
6014
e01c
ENDCHAR
STARTCHAR hldraw
ENCODING 180
SWIDTH 583 0
DWIDTH 14 0
BBX 14 24 0 -2
BITMAP
fffc
8000
8000
a490
db6c
8000
8000
fffc
aaac
fffc
d554
fffc
aaac
fffc
d554
fffc
aaac
fffc
8000
8000
8000
a488
db74
8000
ENDCHAR
STARTCHAR hrdraw
ENCODING 181
SWIDTH 583 0
DWIDTH 14 0
BBX 9 24 1 -2
BITMAP
1580
1a80
1580
1a80
9580
df80
e200
b200
fa00
de00
fe00
be00
fe00
de00
fe00
ba00
f200
e200
df80
9a80
1580
1a80
1580
1a80
ENDCHAR
STARTCHAR iron_bars
ENCODING 183
SWIDTH 583 0
DWIDTH 14 0
BBX 14 24 0 -2
BITMAP
fffc
8000
8000
b330
9110
b330
9110
fffc
9110
b330
9110
b330
9110
b330
9110
b330
9110
fffc
9110
b330
9110
b330
8000
8000
ENDCHAR
STARTCHAR alt_downstairs
ENCODING 184
SWIDTH 583 0
DWIDTH 14 0
BBX 14 24 0 -2
BITMAP
fffc
8000
8000
8000
8000
3ffc
3ffc
33fc
333c
3330
333c
3330
333c
3330
333c
3330
333c
3330
333c
0000
8000
8000
8000
8000
ENDCHAR
STARTCHAR alt_upstairs
ENCODING 185
SWIDTH 583 0
DWIDTH 14 0
BBX 14 24 0 -2
BITMAP
fffc
8000
8000
8000
803c
83e0
3e20
2220
2220
2220
2220
2220
2220
2220
2220
2220
2220
223c
23fc
3ffc
3ffc
8000
8000
8000
ENDCHAR
STARTCHAR lizard
ENCODING 186
SWIDTH 583 0
DWIDTH 14 0
BBX 14 24 0 -2
BITMAP
fffc
8000
8030
8070
8470
86e0
83c0
81d0
83f0
8380
8780
8780
8780
8700
8f00
bf80
a7c0
8640
8600
8700
8300
8180
80f0
8000
ENDCHAR
STARTCHAR seamonster
ENCODING 187
SWIDTH 583 0
DWIDTH 14 0
BBX 14 24 0 -2
BITMAP
fffc
8000
8000
8f80
9fc0
b7e0
8cf0
9870
8038
8038
8018
8018
8038
8038
8078
8070
80f0
81e0
83e0
87c0
87c0
aff0
db6c
8000
ENDCHAR
STARTCHAR ring
ENCODING 189
SWIDTH 583 0
DWIDTH 14 0
BBX 14 24 0 -2
BITMAP
fffc
8000
8000
8000
8000
8000
8000
8440
9290
8820
8000
8380
8440
8380
8440
8820
8820
8820
8440
8380
8000
8000
8000
8000
ENDCHAR
STARTCHAR scroll
ENCODING 191
SWIDTH 583 0
DWIDTH 14 0
BBX 14 24 0 -2
BITMAP
fffc
8000
8000
8000
8000
8000
8000
8000
9fe0
a810
9fe0
a020
a520
9010
9550
8808
8948
9808
a810
9fe0
8000
8000
8000
8000
ENDCHAR
STARTCHAR adventurer
ENCODING 192
SWIDTH 583 0
DWIDTH 14 0
BBX 14 24 0 -2
BITMAP
fffc
8000
8000
8000
8000
a000
a0e0
b0e0
90e0
9840
8840
88f0
8df0
87f0
82f0
80e0
80e0
81f0
83b0
8330
8218
8208
8208
8e38
ENDCHAR
STARTCHAR angelic
ENCODING 193
SWIDTH 583 0
DWIDTH 14 0
BBX 14 24 0 -2
BITMAP
fffc
8000
8000
8380
8440
8440
b298
a928
a6c8
a008
a008
ac68
b458
8440
8440
8c20
8820
9820
9010
9010
b018
a008
bff8
8000
ENDCHAR
STARTCHAR bat
ENCODING 194
SWIDTH 583 0
DWIDTH 14 0
BBX 14 24 0 -2
BITMAP
fffc
8000
8000
8000
8000
8000
9040
3060
7070
f8f8
fdf8
fff8
efb8
e738
f778
f278
7070
2020
8000
8000
8000
8000
8000
8000
ENDCHAR
STARTCHAR centaur
ENCODING 195
SWIDTH 583 0
DWIDTH 14 0
BBX 14 24 0 -2
BITMAP
fffc
8000
8000
8000
8000
8800
9c20
1c60
08c0
7d80
ff00
be70
bff8
9ff8
1ff8
3ff8
3ff8
bfe8
b748
a248
a248
a200
a200
a200
ENDCHAR
STARTCHAR dragon
ENCODING 196
SWIDTH 583 0
DWIDTH 14 0
BBX 14 24 0 -2
BITMAP
fffc
8000
0f00
3f10
fe30
ee30
1f70
3f50
4750
0790
0788
8f08
de08
3e08
7e08
be08
bf08
3ff0
1f84
0fdc
87fc
87f8
8ff0
b9dc
ENDCHAR
STARTCHAR elemental
ENCODING 197
SWIDTH 583 0
DWIDTH 14 0
BBX 14 24 0 -2
BITMAP
fffc
8000
8000
8000
8180
8380
8380
83c0
8fc0
1ff0
3ff0
77f8
f7fc
c7cc
0fe4
0fe4
bfe0
bfe0
3ff0
3cf8
7c78
7838
7018
7018
ENDCHAR
STARTCHAR fungus
ENCODING 198
SWIDTH 583 0
DWIDTH 14 0
BBX 14 24 0 -2
BITMAP
fffc
8000
8000
8000
8000
8000
8000
8000
8000
8000
8000
8000
8000
8000
8000
8000
8000
9e00
b700
bd70
b7f8
9ef8
8c20
8c20
ENDCHAR
STARTCHAR gnome
ENCODING 199
SWIDTH 583 0
DWIDTH 14 0
BBX 14 24 0 -2
BITMAP
fffc
8000
8000
8000
8000
8000
8000
8000
8000
8000
8700
8700
8300
8210
8fa0
8fc0
8f80
8700
8700
8700
8780
8d80
8cc0
9860
ENDCHAR
STARTCHAR giant
ENCODING 200
SWIDTH 583 0
DWIDTH 14 0
BBX 14 24 0 -2
BITMAP
c73c
8f80
8b80
8f98
87b8
8318
078c
47cc
effc
fff8
7ff8
37d0
27c0
87c0
87c0
87e0
8fe0
8ee0
9ee0
bcf0
3870
3870
38f0
79f0
ENDCHAR
STARTCHAR stalker
ENCODING 201
SWIDTH 583 0
DWIDTH 14 0
BBX 14 24 0 -2
BITMAP
fffc
8000
8000
8000
80e0
8380
8638
8ce0
89c0
8fe0
8fd0
9fe0
9f00
9e00
9e00
9e00
8e00
8e00
8f00
8f80
9d80
99c0
b0c0
b060
ENDCHAR
STARTCHAR jabberwock
ENCODING 202
SWIDTH 583 0
DWIDTH 14 0
BBX 14 24 0 -2
BITMAP
fffc
8000
8000
8000
8000
9000
2180
3ac0
63c0
43f0
6778
2f98
1fc0
9c70
9e00
9fe0
9f38
9c14
9e10
8f00
8b80
18c0
30e0
38e0
ENDCHAR
STARTCHAR kop
ENCODING 203
SWIDTH 583 0
DWIDTH 14 0
BBX 14 24 0 -2
BITMAP
fffc
8000
8000
8000
8780
1f00
3f00
7fc0
e500
4480
6680
3330
8e38
8c48
9ec8
9f90
9f30
9f20
9fb0
3f98
3bc0
71c0
60e0
60e0
ENDCHAR
STARTCHAR lich
ENCODING 204
SWIDTH 583 0
DWIDTH 14 0
BBX 14 24 0 -2
BITMAP
f81c
8180
83c0
8340
8340
8740
87c4
8788
87d0
87e0
87e0
8fc0
8fc0
8fc0
8fc0
8fe0
9fe0
9fc0
3f00
3e00
7c00
3800
0000
8000
ENDCHAR
STARTCHAR mummy
ENCODING 205
SWIDTH 583 0
DWIDTH 14 0
BBX 14 24 0 -2
BITMAP
fffc
8000
8000
8600
8f00
8f00
8e00
8c00
8ff8
8fd0
8e10
8e20
8e20
8e00
8e00
8e00
8f00
8f00
9b80
9980
3180
3180
60c0
70e0
ENDCHAR
STARTCHAR naga
ENCODING 206
SWIDTH 583 0
DWIDTH 14 0
BBX 14 24 0 -2
BITMAP
fffc
8000
8000
8780
88c0
8c60
9060
8860
8860
87e0
80e0
80e0
80e0
80e0
81c0
83c0
8780
8760
8e30
8e18
8f18
8f98
87f8
83f0
ENDCHAR
STARTCHAR ogre
ENCODING 207
SWIDTH 583 0
DWIDTH 14 0
BBX 14 24 0 -2
BITMAP
fffc
8000
8000
8000
8000
8e00
8f00
8f00
840c
8f1c
9f1c
9fb8
9fb8
9ef0
9e60
9e00
8e00
9f00
1f80
3bc0
79c0
60c0
60c0
70e0
ENDCHAR
STARTCHAR pudding
ENCODING 208
SWIDTH 583 0
DWIDTH 14 0
BBX 14 24 0 -2
BITMAP
fffc
8000
8000
8000
8000
8000
8000
8000
8000
8000
8000
8000
8100
8300
8f80
8fc0
99c0
93a0
b7e0
b7e0
bfd0
fff0
fff8
fff8
ENDCHAR
STARTCHAR quantum
ENCODING 209
SWIDTH 583 0
DWIDTH 14 0
BBX 14 24 0 -2
BITMAP
fffc
8000
8000
8000
8000
80e0
80e0
80e0
8040
be60
9470
88f0
88f0
9d70
be70
8070
8060
80f0
80f0
81b0
8110
8110
8108
8318
ENDCHAR
STARTCHAR rust
ENCODING 210
SWIDTH 583 0
DWIDTH 14 0
BBX 14 24 0 -2
BITMAP
fffc
8000
8000
8000
8000
8000
8000
8000
8000
8000
8100
8100
8380
8380
8380
87c0
87c0
8fe0
8fe0
8de0
86c0
8380
8000
8000
ENDCHAR
STARTCHAR snake
ENCODING 211
SWIDTH 583 0
DWIDTH 14 0
BBX 14 24 0 -2
BITMAP
fffc
8000
8000
8000
8000
8000
81e0
83f0
82d0
83f0
81f0
81e0
81c0
8180
8380
8700
8e00
8c00
9ce0
9930
9830
9c30
8ff0
87e0
ENDCHAR
STARTCHAR troll
ENCODING 212
SWIDTH 583 0
DWIDTH 14 0
BBX 14 24 0 -2
BITMAP
fffc
8000
8600
8f00
8f00
8f04
0e0c
3c08
3f08
7f18
7f90
ff90
fff0
fef0
ff60
7f00
7f80
7bc0
3bc0
3bc0
79c0
71e0
79e0
7df0
ENDCHAR
STARTCHAR umber
ENCODING 213
SWIDTH 583 0
DWIDTH 14 0
BBX 14 24 0 -2
BITMAP
fffc
8000
87c0
8fe0
8ee0
8ba0
8fe0
3fe0
3ff0
7ff8
fff8
fff8
fffc
dffc
9fec
dfe4
1fec
1fe0
bfe0
3fe0
3de0
79f0
79f0
7df8
ENDCHAR
STARTCHAR vampire
ENCODING 214
SWIDTH 583 0
DWIDTH 14 0
BBX 14 24 0 -2
BITMAP
fffc
8000
8000
8000
8000
81c0
81c0
85c0
8680
83e0
83e0
83f0
83f0
83f0
87f0
87e0
8fc0
8fc0
bfe0
bfe0
b670
8e30
8c30
8e38
ENDCHAR
STARTCHAR wraith
ENCODING 215
SWIDTH 583 0
DWIDTH 14 0
BBX 14 24 0 -2
BITMAP
fffc
8000
8000
8000
8000
8300
8000
8040
8280
8000
9420
8290
8000
9080
9248
8548
a000
8440
8820
8040
9420
8000
9020
8000
ENDCHAR
STARTCHAR xorn
ENCODING 216
SWIDTH 583 0
DWIDTH 14 0
BBX 14 24 0 -2
BITMAP
fffc
8000
8660
8c30
8e70
8c30
8e70
87e0
87e0
07e0
7e38
febc
ce24
efec
47ec
87c0
8ff0
9ff8
9ff8
999c
b8cc
b0cc
b99c
bb9c
ENDCHAR
STARTCHAR yeti
ENCODING 217
SWIDTH 583 0
DWIDTH 14 0
BBX 14 24 0 -2
BITMAP
fffc
8000
8380
8680
8440
86c0
8840
8870
8818
3008
4004
8004
8064
9854
685c
1840
9020
9020
2210
6610
4610
4510
4d90
78f0
ENDCHAR
STARTCHAR zombie
ENCODING 218
SWIDTH 583 0
DWIDTH 14 0
BBX 14 24 0 -2
BITMAP
fffc
8000
8000
8000
8000
8000
8300
8380
8380
b130
9fe0
8780
8780
8780
8780
8780
8780
8780
8d80
8d80
8cc0
8cc0
98c0
9dc0
ENDCHAR
STARTCHAR armor
ENCODING 219
SWIDTH 583 0
DWIDTH 14 0
BBX 14 24 0 -2
BITMAP
fffc
8000
8000
8000
8000
8000
8000
8000
9010
9c70
97d0
9110
9ff0
9390
9110
9ff0
8920
8540
8380
8000
8000
8000
8000
8000
ENDCHAR
STARTCHAR mimic-armor
ENCODING 220
SWIDTH 583 0
DWIDTH 14 0
BBX 14 24 0 -2
BITMAP
fffc
8000
8000
8000
8000
8000
8000
8000
9010
9c70
97d0
9110
9ff0
9390
9110
9ff0
8920
8440
8380
8000
8000
8000
8000
8000
ENDCHAR
STARTCHAR mimic
ENCODING 221
SWIDTH 583 0
DWIDTH 14 0
BBX 14 24 0 -2
BITMAP
fffc
8000
8000
8000
8780
89c0
91e0
9560
91e0
91e0
91e0
99e0
8dc0
37b0
7fc8
3e30
8e40
9e20
be10
be10
bf10
bc90
bc90
bcf0
ENDCHAR
STARTCHAR trap
ENCODING 222
SWIDTH 583 0
DWIDTH 14 0
BBX 14 24 0 -2
BITMAP
fffc
8000
8000
8000
8000
8000
8000
8000
8000
8000
8000
8000
8000
8000
8000
8000
8000
8000
8000
8000
aaa8
aaa8
aaa8
aaa8
ENDCHAR
STARTCHAR chain
ENCODING 223
SWIDTH 583 0
DWIDTH 14 0
BBX 14 24 0 -2
BITMAP
fffc
8000
8000
8000
8000
8000
8000
b800
a800
bf00
95c0
9f70
81b8
80e8
8038
9f68
9558
bff0
aea0
b9e0
9400
9c00
8000
8000
ENDCHAR
STARTCHAR boulder
ENCODING 224
SWIDTH 583 0
DWIDTH 14 0
BBX 14 24 0 -2
BITMAP
fffc
8000
8000
8000
8000
8000
8000
8000
8000
8000
8000
8000
8000
8000
8000
8700
8fe0
8bf0
96f0
9ef0
9ff0
9ff0
87c0
8000
ENDCHAR
STARTCHAR ant
ENCODING 225
SWIDTH 583 0
DWIDTH 14 0
BBX 14 24 0 -2
BITMAP
fffc
8000
8000
8440
8820
8820
8440
8380
87c0
87c0
8fe0
9390
9390
87c0
8fe0
97d0
9390
8380
87c0
8fe0
97d0
97d0
8380
8000
ENDCHAR
STARTCHAR blob
ENCODING 226
SWIDTH 583 0
DWIDTH 14 0
BBX 14 24 0 -2
BITMAP
fffc
8000
8000
8000
8000
8780
9fe0
9c60
bfa0
bfb0
bff0
bff0
bbf0
9860
8f60
8f60
9ff0
bff0
bff0
bff8
b7d0
bdb0
99e0
81c0
ENDCHAR
STARTCHAR cockatrice
ENCODING 227
SWIDTH 583 0
DWIDTH 14 0
BBX 14 24 0 -2
BITMAP
fffc
8000
8000
8000
8000
8000
8000
8000
8000
8000
8000
8000
9c00
be00
9f80
87c0
87e0
87e0
87f0
87f0
83f8
80d8
8088
8180
ENDCHAR
STARTCHAR dog
ENCODING 228
SWIDTH 583 0
DWIDTH 14 0
BBX 14 24 0 -2
BITMAP
fffc
8000
8000
8000
8000
8000
8000
8000
8000
8000
8000
8000
8000
8000
0000
3000
f808
fff0
1ff0
0ff0
0c30
9458
9448
9488
ENDCHAR
STARTCHAR eye
ENCODING 229
SWIDTH 583 0
DWIDTH 14 0
BBX 14 24 0 -2
BITMAP
fffc
8000
8000
8000
8780
9c60
2210
2010
4308
4798
4788
5308
7050
2030
1860
87c0
81c0
80e0
8060
8020
81c0
8300
8200
8000
ENDCHAR
STARTCHAR cat
ENCODING 230
SWIDTH 583 0
DWIDTH 14 0
BBX 14 24 0 -2
BITMAP
fffc
8000
8000
8000
8000
8000
8000
8000
8000
8000
8000
8000
8000
8030
8008
2008
77c8
fff0
3ff0
1ff0
9870
9858
9448
9088
ENDCHAR
STARTCHAR gremlin
ENCODING 231
SWIDTH 583 0
DWIDTH 14 0
BBX 14 24 0 -2
BITMAP
fffc
8000
8000
8000
8000
8000
a008
b118
a928
a548
a7c8
9fd0
87e0
8100
9fe0
33b0
23d0
57d0
07e0
8630
8410
8c30
3820
70e0
ENDCHAR
STARTCHAR humanoid
ENCODING 232
SWIDTH 583 0
DWIDTH 14 0
BBX 14 24 0 -2
BITMAP
fffc
8000
8000
8000
8000
8000
8000
8000
a1c0
a1c0
b1c0
9080
91c0
9bc0
8fe0
85e0
81c0
81c0
83e0
8760
8660
8430
8410
9c70
ENDCHAR
STARTCHAR imp
ENCODING 233
SWIDTH 583 0
DWIDTH 14 0
BBX 14 24 0 -2
BITMAP
fffc
8000
8000
8000
8000
8000
8000
8080
a1c0
a3e0
b1c0
9088
91c8
9be8
8ff0
85c0
81c0
81c0
83e0
8760
8630
8c10
8810
9818
ENDCHAR
STARTCHAR jelly
ENCODING 234
SWIDTH 583 0
DWIDTH 14 0
BBX 14 24 0 -2
BITMAP
fffc
8000
8000
8000
8000
8000
8000
8000
8000
8004
8064
80a4
80f8
80f4
80f8
80f8
806c
c03c
e0fc
b0d0
fbf4
bffc
9ff8
fbd8
ENDCHAR
STARTCHAR kobold
ENCODING 235
SWIDTH 583 0
DWIDTH 14 0
BBX 14 24 0 -2
BITMAP
fffc
8000
8000
8000
8000
8000
8000
8000
8000
8000
8020
81c0
87c0
87c0
8060
9060
88e0
8760
8360
8060
80a0
8190
8110
8338
ENDCHAR
STARTCHAR leprechaun
ENCODING 236
SWIDTH 583 0
DWIDTH 14 0
BBX 14 24 0 -2
BITMAP
fffc
8000
8000
8000
8000
8000
8000
8000
8000
8380
8280
8280
87c0
8280
8440
8440
8380
9c70
8fe0
8380
87c0
8ee0
8440
8c60
ENDCHAR
STARTCHAR mimic
ENCODING 237
SWIDTH 583 0
DWIDTH 14 0
BBX 14 24 0 -2
BITMAP
fffc
8000
8000
8000
8780
89c0
91e0
9560
91e0
91e0
91e0
99e0
8dc0
37b0
7fc8
3e30
8e40
9e20
be10
be10
bf10
bc90
bc90
bcf0
ENDCHAR
STARTCHAR nymph
ENCODING 238
SWIDTH 583 0
DWIDTH 14 0
BBX 14 24 0 -2
BITMAP
fffc
8000
8000
8000
8000
8000
8000
8780
07c0
4720
2338
9f00
8780
8f40
8f20
8300
8300
8300
8700
8c80
88c0
9840
9030
b010
ENDCHAR
STARTCHAR orc
ENCODING 239
SWIDTH 583 0
DWIDTH 14 0
BBX 14 24 0 -2
BITMAP
fffc
8000
8000
8000
8000
8000
8000
81c0
03e0
43e0
61e0
30e0
99f0
8bf8
8ff0
85e0
81e0
81f0
83f0
87f0
8738
8e18
8e18
9c38
ENDCHAR
STARTCHAR piercer
ENCODING 240
SWIDTH 583 0
DWIDTH 14 0
BBX 14 24 0 -2
BITMAP
fffc
fff8
bfe0
9f60
8f40
8ec0
8680
8680
8780
8300
8300
8300
8300
8300
8300
8100
8100
8000
8000
8000
8000
8000
8000
8000
ENDCHAR
STARTCHAR quadroped
ENCODING 241
SWIDTH 583 0
DWIDTH 14 0
BBX 14 24 0 -2
BITMAP
fffc
8000
8000
8000
8000
8000
8000
8000
8000
8000
8000
8000
8038
8078
8078
8070
87e0
8fe0
9fe0
9fe0
9850
b450
a450
a250
ENDCHAR
STARTCHAR rodent
ENCODING 242
SWIDTH 583 0
DWIDTH 14 0
BBX 14 24 0 -2
BITMAP
fffc
8000
8000
8000
8000
8000
8000
8000
8000
8000
8000
8000
81c0
0030
1810
f818
ff88
3fe8
1ff8
9ff8
9fe0
8fe0
8ca0
94a0
ENDCHAR
STARTCHAR spider
ENCODING 243
SWIDTH 583 0
DWIDTH 14 0
BBX 14 24 0 -2
BITMAP
fffc
8000
8000
8000
8000
8000
8000
8000
8000
8000
8000
8000
8000
8000
8100
8380
9550
bff8
afe8
aba8
aaa8
a828
a828
8820
ENDCHAR
STARTCHAR trapper
ENCODING 244
SWIDTH 583 0
DWIDTH 14 0
BBX 14 24 0 -2
BITMAP
fffc
8000
8000
8000
8000
8000
8000
8000
8000
9860
a790
2fd0
3d70
7530
4008
4828
7ab8
3ef0
9fe0
97a0
9020
9020
b870
acd0
ENDCHAR
STARTCHAR unicorn
ENCODING 245
SWIDTH 583 0
DWIDTH 14 0
BBX 14 24 0 -2
BITMAP
fffc
8000
8000
8000
8000
8000
0000
0000
8000
4000
6000
3000
f000
f800
1c00
9ff8
9ff0
1ff0
3ff8
6c28
4828
4828
2828
9850
ENDCHAR
STARTCHAR vortex
ENCODING 246
SWIDTH 583 0
DWIDTH 14 0
BBX 14 24 0 -2
BITMAP
fffc
8000
8000
8000
8000
8000
9f80
30e0
4018
4ff0
7810
3830
97c0
9000
8fe0
8c60
8f80
8400
8780
8380
8300
8200
8600
8000
ENDCHAR
STARTCHAR worm
ENCODING 247
SWIDTH 583 0
DWIDTH 14 0
BBX 14 24 0 -2
BITMAP
fffc
8000
8000
8000
8000
8000
8000
8000
8000
8000
8000
8000
9e00
3f00
3300
7300
6300
0300
8300
8398
81f8
80f0
8000
8000
ENDCHAR
STARTCHAR xan
ENCODING 248
SWIDTH 583 0
DWIDTH 14 0
BBX 14 24 0 -2
BITMAP
fffc
8000
8000
8000
8000
8000
8000
8000
8000
8000
8000
8000
8000
b830
a450
9cb0
8ee0
87c0
8fe0
8ba0
b110
2108
4108
4008
ENDCHAR
STARTCHAR yellow
ENCODING 249
SWIDTH 583 0
DWIDTH 14 0
BBX 14 24 0 -2
BITMAP
fffc
8000
8000
8000
87c0
9830
9010
a6c8
a888
aac8
aa88
a4c8
9010
8820
8440
8440
87c0
8440
8440
8440
8380
8000
8000
8000
ENDCHAR
STARTCHAR zruty
ENCODING 250
SWIDTH 583 0
DWIDTH 14 0
BBX 14 24 0 -2
BITMAP
fffc
8000
8180
83c0
83e0
83e0
3d80
7f78
effc
c7fc
078c
8784
8300
8f80
3fe0
7ce0
78f0
7070
f070
f070
0070
80e0
80f0
80f0
ENDCHAR
STARTCHAR wormtail
ENCODING 254
SWIDTH 583 0
DWIDTH 14 0
BBX 14 24 0 -2
BITMAP
f87c
8300
8480
8480
8840
8840
8840
8840
8840
9040
9040
9040
8884
8888
8888
0900
7110
0110
8120
8220
8260
8240
8240
8180
ENDCHAR
ENDFONT
